<?xml version="1.0" standalone="no"?>
<!DOCTYPE svg PUBLIC "-//W3C//DTD SVG 20010904//EN"
 "http://www.w3.org/TR/2001/REC-SVG-20010904/DTD/svg10.dtd">
<svg version="1.0" xmlns="http://www.w3.org/2000/svg"
 width="920.000000pt" height="920.000000pt" viewBox="0 0 920.000000 920.000000"
 preserveAspectRatio="xMidYMid meet">

<g transform="translate(0.000000,920.000000) scale(0.100000,-0.100000)"
fill="#000000" stroke="none">
<path d="M1343 7851 l-1343 -1346 0 -1910 0 -1910 1345 -1343 1345 -1342 1908
0 1909 0 1347 1343 1346 1342 0 1910 0 1910 -1348 1348 -1347 1347 -1910 -1
-1910 -2 -1342 -1346z m6234 -283 l1233 -1233 0 -1735 0 -1735 -1232 -1232
-1233 -1233 -1745 0 -1745 0 -1232 1232 -1233 1233 0 1735 0 1735 1232 1232
1233 1233 1745 0 1745 0 1232 -1232z"/>
<path d="M3210 8466 c0 -2 38 -93 84 -202 l83 -199 1223 0 1223 0 84 199 c46
110 83 201 83 203 0 1 -625 3 -1390 3 -765 0 -1390 -2 -1390 -4z"/>
<path d="M2423 7894 c-224 -229 -409 -419 -411 -422 -1 -4 60 -69 136 -145
l139 -139 354 362 c195 198 355 365 357 370 2 5 -27 85 -64 177 -81 203 -85
213 -95 213 -4 0 -191 -187 -416 -416z"/>
<path d="M6271 8114 l-84 -196 362 -361 361 -362 140 140 140 140 -418 418
-418 418 -83 -197z"/>
<path d="M3522 7721 c2 -5 37 -92 78 -195 l75 -186 363 0 362 0 0 195 0 195
-441 0 c-252 0 -439 -4 -437 -9z"/>
<path d="M4800 7535 l0 -195 363 0 363 0 13 38 c8 20 42 106 77 191 35 84 64
155 64 157 0 2 -198 4 -440 4 l-440 0 0 -195z"/>
<path d="M2380 6815 c-420 -420 -762 -766 -760 -767 3 -2 94 -39 203 -82 l197
-78 645 643 c355 354 645 648 645 654 0 14 -154 395 -160 395 -3 0 -349 -344
-770 -765z"/>
<path d="M5967 7387 c-42 -105 -77 -197 -77 -202 0 -6 113 -123 250 -260 l250
-250 143 143 142 142 -310 310 c-170 170 -312 309 -315 310 -3 0 -40 -87 -83
-193z"/>
<path d="M1300 6775 c-228 -228 -412 -417 -409 -419 12 -13 391 -166 398 -162
4 3 165 165 356 361 l349 356 -140 140 -139 139 -415 -415z"/>
<path d="M7335 7050 l-140 -140 361 -361 361 -361 189 77 c104 42 192 79 196
83 4 4 -180 195 -410 425 l-417 417 -140 -140z"/>
<path d="M3850 6923 c15 -38 53 -124 82 -193 l54 -125 614 0 614 0 54 125 c29
69 67 155 82 193 l29 67 -779 0 -779 0 29 -67z"/>
<path d="M2900 6295 c-299 -299 -542 -546 -540 -548 3 -3 90 -41 195 -86 l190
-81 434 434 435 435 -78 196 c-43 107 -81 195 -84 195 -4 0 -252 -245 -552
-545z"/>
<path d="M5664 6645 l-78 -196 144 -144 145 -145 140 140 140 140 -200 200
c-110 110 -203 200 -206 200 -4 0 -42 -88 -85 -195z"/>
<path d="M6815 6530 l-140 -140 253 -251 254 -250 196 77 c108 43 199 80 202
81 5 4 -612 623 -620 623 -3 0 -68 -63 -145 -140z"/>
<path d="M4449 6180 c-680 -61 -1256 -572 -1399 -1241 -86 -401 -14 -826 197
-1169 425 -687 1294 -949 2023 -609 673 314 1037 1052 880 1780 -117 543 -526
994 -1055 1167 -208 68 -421 92 -646 72z"/>
<path d="M6297 6012 l-137 -137 148 -148 147 -147 190 81 c105 45 192 83 195
86 4 4 -391 403 -400 403 -3 0 -67 -62 -143 -138z"/>
<path d="M730 4600 c0 -759 3 -1380 6 -1380 5 0 320 130 370 152 l24 11 0
1217 0 1217 -24 11 c-50 22 -365 152 -370 152 -3 0 -6 -621 -6 -1380z"/>
<path d="M8258 5898 l-188 -81 0 -1217 0 -1217 193 -82 c106 -44 196 -81 200
-81 4 0 7 621 7 1380 0 1098 -3 1380 -12 1379 -7 -1 -97 -37 -200 -81z"/>
<path d="M1467 5671 c-2 -3 -3 -202 -3 -441 l1 -435 197 0 198 0 0 361 0 361
-37 16 c-140 61 -354 144 -356 138z"/>
<path d="M7718 5674 c-3 -3 -88 -38 -189 -79 l-184 -74 0 -921 0 -921 185 -75
c102 -41 189 -76 195 -77 11 -2 15 2142 4 2148 -3 3 -9 2 -11 -1z"/>
<path d="M2200 5086 l0 -291 195 -1 195 -1 0 212 0 212 -195 80 -195 80 0
-291z"/>
<path d="M6800 5295 l-195 -83 -3 -210 -2 -210 200 2 200 1 0 293 c0 160 -1
292 -2 291 -2 -1 -91 -39 -198 -84z"/>
<path d="M2200 4114 l0 -291 195 80 195 80 0 212 0 212 -195 -1 -195 -1 0
-291z"/>
<path d="M6602 4198 l3 -210 198 -83 197 -83 0 292 0 291 -200 1 -200 2 2
-210z"/>
<path d="M1467 4393 c-9 -16 -1 -868 9 -866 9 2 274 109 347 140 l37 16 0 359
0 358 -194 0 c-107 0 -197 -3 -199 -7z"/>
<path d="M2548 3537 c-104 -45 -187 -85 -185 -89 3 -10 1089 -1100 1092 -1096
7 7 155 383 155 393 0 10 -861 876 -870 874 -3 0 -89 -38 -192 -82z"/>
<path d="M6022 3187 c-237 -237 -432 -438 -432 -444 0 -12 147 -384 155 -391
4 -4 1088 1084 1092 1097 2 4 -257 121 -376 169 -3 1 -201 -193 -439 -431z"/>
<path d="M1810 3232 c-102 -41 -187 -77 -190 -79 -2 -2 137 -145 310 -318
l315 -315 140 140 141 140 -256 255 c-141 140 -260 255 -265 254 -6 0 -93 -35
-195 -77z"/>
<path d="M6538 2664 c-357 -355 -648 -649 -648 -653 0 -9 150 -383 157 -390 4
-5 1533 1520 1533 1529 0 5 -380 160 -390 160 -3 0 -296 -291 -652 -646z"/>
<path d="M1085 2929 c-104 -45 -192 -83 -195 -86 -3 -3 184 -191 414 -419
l419 -413 136 131 c75 72 136 135 136 139 0 9 -705 729 -714 729 -3 -1 -91
-37 -196 -81z"/>
<path d="M7051 2146 l-864 -864 84 -196 83 -197 978 978 c538 538 978 980 978
983 0 4 -296 124 -380 155 -10 3 -294 -274 -879 -859z"/>
<path d="M3975 2568 c-7 -18 -43 -103 -80 -188 -37 -85 -69 -161 -72 -167 -4
-10 57 -13 286 -13 l291 0 0 73 c0 39 3 129 7 200 l6 127 -212 0 -212 0 -14
-32z"/>
<path d="M4800 2400 l0 -200 290 0 c160 0 290 1 290 3 0 1 -38 90 -84 197
l-83 195 -207 3 -206 2 0 -200z"/>
<path d="M2665 2380 l-140 -140 310 -310 c171 -170 312 -310 315 -310 8 0 163
388 158 397 -1 4 -116 119 -253 255 l-251 247 -139 -139z"/>
<path d="M2148 1871 c-76 -78 -138 -145 -138 -149 0 -4 187 -194 415 -422 330
-329 417 -412 425 -400 13 20 150 364 150 376 0 5 -161 173 -357 373 l-358
364 -137 -142z"/>
<path d="M3594 1665 c-45 -107 -79 -197 -76 -200 9 -9 2174 -6 2170 3 -1 5
-39 95 -83 200 l-80 192 -925 0 -925 -1 -81 -194z"/>
<path d="M3361 1088 c-10 -24 -48 -112 -85 -196 -36 -84 -66 -155 -66 -157 0
-3 268 -5 595 -5 l595 0 0 200 0 200 -510 0 -511 0 -18 -42z"/>
<path d="M4792 933 l3 -198 598 -3 c328 -1 597 1 596 5 0 5 -37 94 -83 198
l-83 190 -517 3 -516 2 2 -197z"/>
</g>
</svg>